<svg width="420" height="112" viewBox="0 0 420 112" fill="none" xmlns="http://www.w3.org/2000/svg">
  <rect width="420" height="112" rx="16" fill="white"/>
  <g transform="translate(16 14)">
    <path d="M18 0H37L46 15.5L37 31H18L9 15.5L18 0Z" fill="#123F7B"/>
    <path d="M48 0H67L76 15.5L67 31H48L39 15.5L48 0Z" fill="#1CA7E4"/>
    <path d="M18 34H37L46 49.5L37 65H18L9 49.5L18 34Z" fill="#FF5A1F"/>
    <path d="M48 34H67L76 49.5L67 65H48L39 49.5L48 34Z" fill="#F33A43"/>
    <path d="M78 34H97L106 49.5L97 65H78L69 49.5L78 34Z" fill="#8B31B0"/>
    <path d="M48 68H67L76 83.5L67 99H48L39 83.5L48 68Z" fill="#115945"/>
  </g>
  <g fill="#12325D">
    <path d="M145.9 64.4C134.5 64.4 126.7 57.7 126.7 47.2C126.7 36.8 134.7 29.7 146.2 29.7C151.7 29.7 156.6 31.2 160.5 34.3L156.5 42.2C153.5 39.8 150.1 38.7 146.1 38.7C140.4 38.7 136.3 41.8 136.3 47.1C136.3 52.4 140.3 55.5 146.1 55.5C150.3 55.5 153.7 54.3 156.7 51.9L160.7 59.7C156.8 62.9 151.7 64.4 145.9 64.4Z"/>
    <path d="M165.1 63.5V30.6H174.4V42.5H188.4V30.6H197.7V63.5H188.4V50.8H174.4V63.5H165.1Z"/>
    <path d="M216 64.4C206.6 64.4 200.2 59.1 200.2 50.1V30.6H209.5V49.5C209.5 53.5 212 55.7 216 55.7C220 55.7 222.4 53.5 222.4 49.5V30.6H231.7V50.1C231.7 59.1 225.4 64.4 216 64.4Z"/>
    <path d="M236.2 63.5V30.6H252.6C260.3 30.6 265.2 34.8 265.2 41.6C265.2 48.5 260.3 52.9 252.6 52.9H245.4V63.5H236.2ZM245.4 45.1H251.6C254.4 45.1 256 43.8 256 41.7C256 39.6 254.4 38.4 251.6 38.4H245.4V45.1Z"/>
    <path d="M269.2 63.5V30.6H278.4V54.9H293.1V63.5H269.2Z"/>
    <path d="M296.6 63.5V30.6H311.8C318.7 30.6 323 33.8 323 39C323 42.3 321.3 44.8 318.1 46.2C322.2 47.4 324.5 50.2 324.5 54.3C324.5 60.1 319.7 63.5 312.4 63.5H296.6ZM305.6 43.4H310.4C312.8 43.4 314.1 42.4 314.1 40.6C314.1 38.8 312.8 37.8 310.4 37.8H305.6V43.4ZM305.6 56.1H311C313.7 56.1 315.2 55.1 315.2 53.1C315.2 51.1 313.7 50 311 50H305.6V56.1Z"/>
  </g>
  <g fill="#7A889E">
    <path d="M129.3 81.8H136.8C139.7 81.8 141.7 83.4 141.7 86.2C141.7 88.9 139.8 90.6 136.8 90.6H132.5V97H129.3V81.8ZM136.3 87.8C137.7 87.8 138.5 87.2 138.5 86.2C138.5 85.1 137.7 84.6 136.3 84.6H132.5V87.8H136.3Z"/>
    <path d="M144.7 97V81.8H147.9V94.1H156V97H144.7Z"/>
    <path d="M158.4 97L165.2 81.8H168.4L175.2 97H171.8L170.5 94H163L161.7 97H158.4ZM164.2 91.4H169.3L166.8 85.4L164.2 91.4Z"/>
    <path d="M177.7 97V81.8H181L188.3 91.4V81.8H191.4V97H188.4L180.8 87V97H177.7Z"/>
    <path d="M195.4 97V81.8H206.9V84.6H198.6V87.8H205.9V90.5H198.6V97H195.4Z"/>
    <path d="M209.9 97V81.8H221.8V84.6H213.1V87.8H220.8V90.4H213.1V94.2H222V97H209.9Z"/>
    <path d="M225.2 97V81.8H232.7C235.8 81.8 237.8 83.5 237.8 86.1C237.8 88.1 236.8 89.6 235 90.3L238.3 97H234.8L231.9 90.9H228.4V97H225.2ZM228.4 88.2H232.2C233.6 88.2 234.5 87.5 234.5 86.3C234.5 85.2 233.6 84.6 232.2 84.6H228.4V88.2Z"/>
  </g>
</svg>
